<?xml version="1.0" encoding="utf-8"?>
<svg xmlns="http://www.w3.org/2000/svg" xmlns:xlink="http://www.w3.org/1999/xlink" width="600" height="600" viewBox="0 0 2400 2400">
<defs>
  <clipPath id="clip880">
    <rect x="0" y="0" width="2400" height="2400"/>
  </clipPath>
</defs>
<path clip-path="url(#clip880)" d="M0 2400 L2400 2400 L2400 0 L0 0  Z" fill="#ffffff" fill-rule="evenodd" fill-opacity="1"/>
<defs>
  <clipPath id="clip881">
    <rect x="480" y="240" width="1681" height="1681"/>
  </clipPath>
</defs>
<path clip-path="url(#clip880)" d="M243.14 2174.14 L2352.76 2174.14 L2352.76 153.712 L243.14 153.712  Z" fill="#ffffff" fill-rule="evenodd" fill-opacity="1"/>
<defs>
  <clipPath id="clip882">
    <rect x="243" y="153" width="2111" height="2021"/>
  </clipPath>
</defs>
<polyline clip-path="url(#clip882)" style="stroke:#000000; stroke-linecap:round; stroke-linejoin:round; stroke-width:2; stroke-opacity:0.1; fill:none" points="298.858,2174.14 298.858,153.712 "/>
<polyline clip-path="url(#clip882)" style="stroke:#000000; stroke-linecap:round; stroke-linejoin:round; stroke-width:2; stroke-opacity:0.1; fill:none" points="697.696,2174.14 697.696,153.712 "/>
<polyline clip-path="url(#clip882)" style="stroke:#000000; stroke-linecap:round; stroke-linejoin:round; stroke-width:2; stroke-opacity:0.1; fill:none" points="1096.53,2174.14 1096.53,153.712 "/>
<polyline clip-path="url(#clip882)" style="stroke:#000000; stroke-linecap:round; stroke-linejoin:round; stroke-width:2; stroke-opacity:0.1; fill:none" points="1495.37,2174.14 1495.37,153.712 "/>
<polyline clip-path="url(#clip882)" style="stroke:#000000; stroke-linecap:round; stroke-linejoin:round; stroke-width:2; stroke-opacity:0.1; fill:none" points="1894.21,2174.14 1894.21,153.712 "/>
<polyline clip-path="url(#clip882)" style="stroke:#000000; stroke-linecap:round; stroke-linejoin:round; stroke-width:2; stroke-opacity:0.1; fill:none" points="2293.05,2174.14 2293.05,153.712 "/>
<polyline clip-path="url(#clip880)" style="stroke:#000000; stroke-linecap:round; stroke-linejoin:round; stroke-width:4; stroke-opacity:1; fill:none" points="243.14,2174.14 2352.76,2174.14 "/>
<polyline clip-path="url(#clip880)" style="stroke:#000000; stroke-linecap:round; stroke-linejoin:round; stroke-width:4; stroke-opacity:1; fill:none" points="298.858,2174.14 298.858,2155.24 "/>
<polyline clip-path="url(#clip880)" style="stroke:#000000; stroke-linecap:round; stroke-linejoin:round; stroke-width:4; stroke-opacity:1; fill:none" points="697.696,2174.14 697.696,2155.24 "/>
<polyline clip-path="url(#clip880)" style="stroke:#000000; stroke-linecap:round; stroke-linejoin:round; stroke-width:4; stroke-opacity:1; fill:none" points="1096.53,2174.14 1096.53,2155.24 "/>
<polyline clip-path="url(#clip880)" style="stroke:#000000; stroke-linecap:round; stroke-linejoin:round; stroke-width:4; stroke-opacity:1; fill:none" points="1495.37,2174.14 1495.37,2155.24 "/>
<polyline clip-path="url(#clip880)" style="stroke:#000000; stroke-linecap:round; stroke-linejoin:round; stroke-width:4; stroke-opacity:1; fill:none" points="1894.21,2174.14 1894.21,2155.24 "/>
<polyline clip-path="url(#clip880)" style="stroke:#000000; stroke-linecap:round; stroke-linejoin:round; stroke-width:4; stroke-opacity:1; fill:none" points="2293.05,2174.14 2293.05,2155.24 "/>
<path clip-path="url(#clip880)" d="M298.858 2205.06 Q295.247 2205.06 293.418 2208.62 Q291.613 2212.16 291.613 2219.29 Q291.613 2226.4 293.418 2229.97 Q295.247 2233.51 298.858 2233.51 Q302.492 2233.51 304.298 2229.97 Q306.126 2226.4 306.126 2219.29 Q306.126 2212.16 304.298 2208.62 Q302.492 2205.06 298.858 2205.06 M298.858 2201.35 Q304.668 2201.35 307.724 2205.96 Q310.802 2210.54 310.802 2219.29 Q310.802 2228.02 307.724 2232.63 Q304.668 2237.21 298.858 2237.21 Q293.048 2237.21 289.969 2232.63 Q286.913 2228.02 286.913 2219.29 Q286.913 2210.54 289.969 2205.96 Q293.048 2201.35 298.858 2201.35 Z" fill="#000000" fill-rule="nonzero" fill-opacity="1" /><path clip-path="url(#clip880)" d="M657.303 2232.6 L664.942 2232.6 L664.942 2206.24 L656.632 2207.91 L656.632 2203.65 L664.896 2201.98 L669.571 2201.98 L669.571 2232.6 L677.21 2232.6 L677.21 2236.54 L657.303 2236.54 L657.303 2232.6 Z" fill="#000000" fill-rule="nonzero" fill-opacity="1" /><path clip-path="url(#clip880)" d="M696.655 2205.06 Q693.044 2205.06 691.215 2208.62 Q689.409 2212.16 689.409 2219.29 Q689.409 2226.4 691.215 2229.97 Q693.044 2233.51 696.655 2233.51 Q700.289 2233.51 702.094 2229.97 Q703.923 2226.4 703.923 2219.29 Q703.923 2212.16 702.094 2208.62 Q700.289 2205.06 696.655 2205.06 M696.655 2201.35 Q702.465 2201.35 705.52 2205.96 Q708.599 2210.54 708.599 2219.29 Q708.599 2228.02 705.52 2232.63 Q702.465 2237.21 696.655 2237.21 Q690.844 2237.21 687.766 2232.63 Q684.71 2228.02 684.71 2219.29 Q684.71 2210.54 687.766 2205.96 Q690.844 2201.35 696.655 2201.35 Z" fill="#000000" fill-rule="nonzero" fill-opacity="1" /><path clip-path="url(#clip880)" d="M726.816 2205.06 Q723.205 2205.06 721.377 2208.62 Q719.571 2212.16 719.571 2219.29 Q719.571 2226.4 721.377 2229.97 Q723.205 2233.51 726.816 2233.51 Q730.451 2233.51 732.256 2229.97 Q734.085 2226.4 734.085 2219.29 Q734.085 2212.16 732.256 2208.62 Q730.451 2205.06 726.816 2205.06 M726.816 2201.35 Q732.627 2201.35 735.682 2205.96 Q738.761 2210.54 738.761 2219.29 Q738.761 2228.02 735.682 2232.63 Q732.627 2237.21 726.816 2237.21 Q721.006 2237.21 717.928 2232.63 Q714.872 2228.02 714.872 2219.29 Q714.872 2210.54 717.928 2205.96 Q721.006 2201.35 726.816 2201.35 Z" fill="#000000" fill-rule="nonzero" fill-opacity="1" /><path clip-path="url(#clip880)" d="M1060.23 2232.6 L1076.55 2232.6 L1076.55 2236.54 L1054.6 2236.54 L1054.6 2232.6 Q1057.26 2229.85 1061.85 2225.22 Q1066.45 2220.57 1067.63 2219.23 Q1069.88 2216.7 1070.76 2214.97 Q1071.66 2213.21 1071.66 2211.52 Q1071.66 2208.76 1069.72 2207.03 Q1067.8 2205.29 1064.69 2205.29 Q1062.5 2205.29 1060.04 2206.05 Q1057.61 2206.82 1054.83 2208.37 L1054.83 2203.65 Q1057.66 2202.51 1060.11 2201.93 Q1062.56 2201.35 1064.6 2201.35 Q1069.97 2201.35 1073.17 2204.04 Q1076.36 2206.73 1076.36 2211.22 Q1076.36 2213.35 1075.55 2215.27 Q1074.76 2217.16 1072.66 2219.76 Q1072.08 2220.43 1068.98 2223.65 Q1065.88 2226.84 1060.23 2232.6 Z" fill="#000000" fill-rule="nonzero" fill-opacity="1" /><path clip-path="url(#clip880)" d="M1096.36 2205.06 Q1092.75 2205.06 1090.92 2208.62 Q1089.12 2212.16 1089.12 2219.29 Q1089.12 2226.4 1090.92 2229.97 Q1092.75 2233.51 1096.36 2233.51 Q1100 2233.51 1101.8 2229.97 Q1103.63 2226.4 1103.63 2219.29 Q1103.63 2212.16 1101.8 2208.62 Q1100 2205.06 1096.36 2205.06 M1096.36 2201.35 Q1102.17 2201.35 1105.23 2205.96 Q1108.31 2210.54 1108.31 2219.29 Q1108.31 2228.02 1105.23 2232.63 Q1102.17 2237.21 1096.36 2237.21 Q1090.55 2237.21 1087.47 2232.63 Q1084.42 2228.02 1084.42 2219.29 Q1084.42 2210.54 1087.47 2205.96 Q1090.55 2201.35 1096.36 2201.35 Z" fill="#000000" fill-rule="nonzero" fill-opacity="1" /><path clip-path="url(#clip880)" d="M1126.52 2205.06 Q1122.91 2205.06 1121.08 2208.62 Q1119.28 2212.16 1119.28 2219.29 Q1119.28 2226.4 1121.08 2229.97 Q1122.91 2233.51 1126.52 2233.51 Q1130.16 2233.51 1131.96 2229.97 Q1133.79 2226.4 1133.79 2219.29 Q1133.79 2212.16 1131.96 2208.62 Q1130.16 2205.06 1126.52 2205.06 M1126.52 2201.35 Q1132.33 2201.35 1135.39 2205.96 Q1138.47 2210.54 1138.47 2219.29 Q1138.47 2228.02 1135.39 2232.63 Q1132.33 2237.21 1126.52 2237.21 Q1120.71 2237.21 1117.63 2232.63 Q1114.58 2228.02 1114.58 2219.29 Q1114.58 2210.54 1117.63 2205.96 Q1120.71 2201.35 1126.52 2201.35 Z" fill="#000000" fill-rule="nonzero" fill-opacity="1" /><path clip-path="url(#clip880)" d="M1469.13 2217.91 Q1472.49 2218.62 1474.37 2220.89 Q1476.26 2223.16 1476.26 2226.49 Q1476.26 2231.61 1472.75 2234.41 Q1469.23 2237.21 1462.75 2237.21 Q1460.57 2237.21 1458.26 2236.77 Q1455.96 2236.35 1453.51 2235.5 L1453.51 2230.98 Q1455.45 2232.12 1457.77 2232.7 Q1460.08 2233.28 1462.61 2233.28 Q1467.01 2233.28 1469.3 2231.54 Q1471.61 2229.8 1471.61 2226.49 Q1471.61 2223.44 1469.46 2221.73 Q1467.33 2219.99 1463.51 2219.99 L1459.48 2219.99 L1459.48 2216.15 L1463.69 2216.15 Q1467.14 2216.15 1468.97 2214.78 Q1470.8 2213.39 1470.8 2210.8 Q1470.8 2208.14 1468.9 2206.73 Q1467.03 2205.29 1463.51 2205.29 Q1461.59 2205.29 1459.39 2205.71 Q1457.19 2206.12 1454.55 2207 L1454.55 2202.84 Q1457.21 2202.1 1459.53 2201.73 Q1461.87 2201.35 1463.93 2201.35 Q1469.25 2201.35 1472.35 2203.79 Q1475.45 2206.19 1475.45 2210.31 Q1475.45 2213.18 1473.81 2215.17 Q1472.17 2217.14 1469.13 2217.91 Z" fill="#000000" fill-rule="nonzero" fill-opacity="1" /><path clip-path="url(#clip880)" d="M1495.13 2205.06 Q1491.52 2205.06 1489.69 2208.62 Q1487.88 2212.16 1487.88 2219.29 Q1487.88 2226.4 1489.69 2229.97 Q1491.52 2233.51 1495.13 2233.51 Q1498.76 2233.51 1500.57 2229.97 Q1502.4 2226.4 1502.4 2219.29 Q1502.4 2212.16 1500.57 2208.62 Q1498.76 2205.06 1495.13 2205.06 M1495.13 2201.35 Q1500.94 2201.35 1504 2205.96 Q1507.07 2210.54 1507.07 2219.29 Q1507.07 2228.02 1504 2232.63 Q1500.94 2237.21 1495.13 2237.21 Q1489.32 2237.21 1486.24 2232.63 Q1483.19 2228.02 1483.19 2219.29 Q1483.19 2210.54 1486.24 2205.96 Q1489.32 2201.35 1495.13 2201.35 Z" fill="#000000" fill-rule="nonzero" fill-opacity="1" /><path clip-path="url(#clip880)" d="M1525.29 2205.06 Q1521.68 2205.06 1519.85 2208.62 Q1518.05 2212.16 1518.05 2219.29 Q1518.05 2226.4 1519.85 2229.97 Q1521.68 2233.51 1525.29 2233.51 Q1528.93 2233.51 1530.73 2229.97 Q1532.56 2226.4 1532.56 2219.29 Q1532.56 2212.16 1530.73 2208.62 Q1528.93 2205.06 1525.29 2205.06 M1525.29 2201.35 Q1531.1 2201.35 1534.16 2205.96 Q1537.24 2210.54 1537.24 2219.29 Q1537.24 2228.02 1534.16 2232.63 Q1531.1 2237.21 1525.29 2237.21 Q1519.48 2237.21 1516.4 2232.63 Q1513.35 2228.02 1513.35 2219.29 Q1513.35 2210.54 1516.4 2205.96 Q1519.48 2201.35 1525.29 2201.35 Z" fill="#000000" fill-rule="nonzero" fill-opacity="1" /><path clip-path="url(#clip880)" d="M1867.3 2206.05 L1855.5 2224.5 L1867.3 2224.5 L1867.3 2206.05 M1866.07 2201.98 L1871.95 2201.98 L1871.95 2224.5 L1876.89 2224.5 L1876.89 2228.39 L1871.95 2228.39 L1871.95 2236.54 L1867.3 2236.54 L1867.3 2228.39 L1851.7 2228.39 L1851.7 2223.88 L1866.07 2201.98 Z" fill="#000000" fill-rule="nonzero" fill-opacity="1" /><path clip-path="url(#clip880)" d="M1894.62 2205.06 Q1891.01 2205.06 1889.18 2208.62 Q1887.37 2212.16 1887.37 2219.29 Q1887.37 2226.4 1889.18 2229.97 Q1891.01 2233.51 1894.62 2233.51 Q1898.25 2233.51 1900.06 2229.97 Q1901.88 2226.4 1901.88 2219.29 Q1901.88 2212.16 1900.06 2208.62 Q1898.25 2205.06 1894.62 2205.06 M1894.62 2201.35 Q1900.43 2201.35 1903.48 2205.96 Q1906.56 2210.54 1906.56 2219.29 Q1906.56 2228.02 1903.48 2232.63 Q1900.43 2237.21 1894.62 2237.21 Q1888.81 2237.21 1885.73 2232.63 Q1882.67 2228.02 1882.67 2219.29 Q1882.67 2210.54 1885.73 2205.96 Q1888.81 2201.35 1894.62 2201.35 Z" fill="#000000" fill-rule="nonzero" fill-opacity="1" /><path clip-path="url(#clip880)" d="M1924.78 2205.06 Q1921.17 2205.06 1919.34 2208.62 Q1917.53 2212.16 1917.53 2219.29 Q1917.53 2226.4 1919.34 2229.97 Q1921.17 2233.51 1924.78 2233.51 Q1928.41 2233.51 1930.22 2229.97 Q1932.05 2226.4 1932.05 2219.29 Q1932.05 2212.16 1930.22 2208.62 Q1928.41 2205.06 1924.78 2205.06 M1924.78 2201.35 Q1930.59 2201.35 1933.64 2205.96 Q1936.72 2210.54 1936.72 2219.29 Q1936.72 2228.02 1933.64 2232.63 Q1930.59 2237.21 1924.78 2237.21 Q1918.97 2237.21 1915.89 2232.63 Q1912.83 2228.02 1912.83 2219.29 Q1912.83 2210.54 1915.89 2205.96 Q1918.97 2201.35 1924.78 2201.35 Z" fill="#000000" fill-rule="nonzero" fill-opacity="1" /><path clip-path="url(#clip880)" d="M2252.67 2201.98 L2271.02 2201.98 L2271.02 2205.92 L2256.95 2205.92 L2256.95 2214.39 Q2257.97 2214.04 2258.99 2213.88 Q2260.01 2213.69 2261.02 2213.69 Q2266.81 2213.69 2270.19 2216.86 Q2273.57 2220.04 2273.57 2225.45 Q2273.57 2231.03 2270.1 2234.13 Q2266.63 2237.21 2260.31 2237.21 Q2258.13 2237.21 2255.86 2236.84 Q2253.62 2236.47 2251.21 2235.73 L2251.21 2231.03 Q2253.29 2232.16 2255.52 2232.72 Q2257.74 2233.28 2260.21 2233.28 Q2264.22 2233.28 2266.56 2231.17 Q2268.89 2229.06 2268.89 2225.45 Q2268.89 2221.84 2266.56 2219.73 Q2264.22 2217.63 2260.21 2217.63 Q2258.34 2217.63 2256.46 2218.04 Q2254.61 2218.46 2252.67 2219.34 L2252.67 2201.98 Z" fill="#000000" fill-rule="nonzero" fill-opacity="1" /><path clip-path="url(#clip880)" d="M2292.78 2205.06 Q2289.17 2205.06 2287.34 2208.62 Q2285.54 2212.16 2285.54 2219.29 Q2285.54 2226.4 2287.34 2229.97 Q2289.17 2233.51 2292.78 2233.51 Q2296.42 2233.51 2298.22 2229.97 Q2300.05 2226.4 2300.05 2219.29 Q2300.05 2212.16 2298.22 2208.62 Q2296.42 2205.06 2292.78 2205.06 M2292.78 2201.35 Q2298.59 2201.35 2301.65 2205.96 Q2304.73 2210.54 2304.73 2219.29 Q2304.73 2228.02 2301.65 2232.63 Q2298.59 2237.21 2292.78 2237.21 Q2286.97 2237.21 2283.89 2232.63 Q2280.84 2228.02 2280.84 2219.29 Q2280.84 2210.54 2283.89 2205.96 Q2286.97 2201.35 2292.78 2201.35 Z" fill="#000000" fill-rule="nonzero" fill-opacity="1" /><path clip-path="url(#clip880)" d="M2322.95 2205.06 Q2319.33 2205.06 2317.51 2208.62 Q2315.7 2212.16 2315.7 2219.29 Q2315.7 2226.4 2317.51 2229.97 Q2319.33 2233.51 2322.95 2233.51 Q2326.58 2233.51 2328.39 2229.97 Q2330.21 2226.4 2330.21 2219.29 Q2330.21 2212.16 2328.39 2208.62 Q2326.58 2205.06 2322.95 2205.06 M2322.95 2201.35 Q2328.76 2201.35 2331.81 2205.96 Q2334.89 2210.54 2334.89 2219.29 Q2334.89 2228.02 2331.81 2232.63 Q2328.76 2237.21 2322.95 2237.21 Q2317.14 2237.21 2314.06 2232.63 Q2311 2228.02 2311 2219.29 Q2311 2210.54 2314.06 2205.96 Q2317.14 2201.35 2322.95 2201.35 Z" fill="#000000" fill-rule="nonzero" fill-opacity="1" /><path clip-path="url(#clip880)" d="M1185.96 2271.48 L1216.01 2271.48 L1216.01 2276.89 L1192.39 2276.89 L1192.39 2290.96 L1215.02 2290.96 L1215.02 2296.37 L1192.39 2296.37 L1192.39 2313.59 L1216.58 2313.59 L1216.58 2319 L1185.96 2319 L1185.96 2271.48 Z" fill="#000000" fill-rule="nonzero" fill-opacity="1" /><path clip-path="url(#clip880)" d="M1232.56 2313.66 L1232.56 2332.56 L1226.67 2332.56 L1226.67 2283.36 L1232.56 2283.36 L1232.56 2288.77 Q1234.4 2285.58 1237.2 2284.06 Q1240.04 2282.5 1243.95 2282.5 Q1250.44 2282.5 1254.49 2287.65 Q1258.56 2292.81 1258.56 2301.21 Q1258.56 2309.61 1254.49 2314.77 Q1250.44 2319.93 1243.95 2319.93 Q1240.04 2319.93 1237.2 2318.4 Q1234.4 2316.84 1232.56 2313.66 M1252.48 2301.21 Q1252.48 2294.75 1249.81 2291.09 Q1247.17 2287.4 1242.52 2287.4 Q1237.87 2287.4 1235.2 2291.09 Q1232.56 2294.75 1232.56 2301.21 Q1232.56 2307.67 1235.2 2311.36 Q1237.87 2315.03 1242.52 2315.03 Q1247.17 2315.03 1249.81 2311.36 Q1252.48 2307.67 1252.48 2301.21 Z" fill="#000000" fill-rule="nonzero" fill-opacity="1" /><path clip-path="url(#clip880)" d="M1282.08 2287.46 Q1277.37 2287.46 1274.63 2291.15 Q1271.9 2294.81 1271.9 2301.21 Q1271.9 2307.61 1274.6 2311.3 Q1277.34 2314.96 1282.08 2314.96 Q1286.76 2314.96 1289.5 2311.27 Q1292.23 2307.58 1292.23 2301.21 Q1292.23 2294.88 1289.5 2291.19 Q1286.76 2287.46 1282.08 2287.46 M1282.08 2282.5 Q1289.72 2282.5 1294.08 2287.46 Q1298.44 2292.43 1298.44 2301.21 Q1298.44 2309.96 1294.08 2314.96 Q1289.72 2319.93 1282.08 2319.93 Q1274.41 2319.93 1270.05 2314.96 Q1265.72 2309.96 1265.72 2301.21 Q1265.72 2292.43 1270.05 2287.46 Q1274.41 2282.5 1282.08 2282.5 Z" fill="#000000" fill-rule="nonzero" fill-opacity="1" /><path clip-path="url(#clip880)" d="M1333.8 2284.72 L1333.8 2290.2 Q1331.32 2288.83 1328.81 2288.16 Q1326.32 2287.46 1323.78 2287.46 Q1318.08 2287.46 1314.93 2291.09 Q1311.78 2294.69 1311.78 2301.21 Q1311.78 2307.74 1314.93 2311.36 Q1318.08 2314.96 1323.78 2314.96 Q1326.32 2314.96 1328.81 2314.29 Q1331.32 2313.59 1333.8 2312.22 L1333.8 2317.64 Q1331.35 2318.78 1328.71 2319.35 Q1326.1 2319.93 1323.14 2319.93 Q1315.09 2319.93 1310.35 2314.87 Q1305.6 2309.81 1305.6 2301.21 Q1305.6 2292.49 1310.38 2287.49 Q1315.18 2282.5 1323.52 2282.5 Q1326.23 2282.5 1328.81 2283.07 Q1331.38 2283.61 1333.8 2284.72 Z" fill="#000000" fill-rule="nonzero" fill-opacity="1" /><path clip-path="url(#clip880)" d="M1373.62 2297.49 L1373.62 2319 L1367.76 2319 L1367.76 2297.68 Q1367.76 2292.62 1365.79 2290.1 Q1363.82 2287.59 1359.87 2287.59 Q1355.13 2287.59 1352.39 2290.61 Q1349.65 2293.64 1349.65 2298.86 L1349.65 2319 L1343.77 2319 L1343.77 2269.48 L1349.65 2269.48 L1349.65 2288.89 Q1351.75 2285.68 1354.59 2284.09 Q1357.45 2282.5 1361.18 2282.5 Q1367.32 2282.5 1370.47 2286.32 Q1373.62 2290.1 1373.62 2297.49 Z" fill="#000000" fill-rule="nonzero" fill-opacity="1" /><path clip-path="url(#clip880)" d="M1408.03 2284.41 L1408.03 2289.94 Q1405.54 2288.67 1402.87 2288.03 Q1400.2 2287.4 1397.33 2287.4 Q1392.97 2287.4 1390.78 2288.73 Q1388.61 2290.07 1388.61 2292.75 Q1388.61 2294.78 1390.17 2295.96 Q1391.73 2297.11 1396.44 2298.16 L1398.45 2298.6 Q1404.69 2299.94 1407.29 2302.39 Q1409.94 2304.81 1409.94 2309.17 Q1409.94 2314.13 1405.99 2317.03 Q1402.08 2319.93 1395.2 2319.93 Q1392.34 2319.93 1389.22 2319.35 Q1386.13 2318.81 1382.69 2317.7 L1382.69 2311.65 Q1385.94 2313.34 1389.09 2314.2 Q1392.24 2315.03 1395.33 2315.03 Q1399.47 2315.03 1401.69 2313.62 Q1403.92 2312.19 1403.92 2309.61 Q1403.92 2307.23 1402.3 2305.95 Q1400.71 2304.68 1395.26 2303.5 L1393.23 2303.03 Q1387.78 2301.88 1385.37 2299.52 Q1382.95 2297.14 1382.95 2293 Q1382.95 2287.97 1386.51 2285.23 Q1390.08 2282.5 1396.63 2282.5 Q1399.88 2282.5 1402.74 2282.97 Q1405.61 2283.45 1408.03 2284.41 Z" fill="#000000" fill-rule="nonzero" fill-opacity="1" /><polyline clip-path="url(#clip882)" style="stroke:#000000; stroke-linecap:round; stroke-linejoin:round; stroke-width:2; stroke-opacity:0.1; fill:none" points="243.14,2145.09 2352.76,2145.09 "/>
<polyline clip-path="url(#clip882)" style="stroke:#000000; stroke-linecap:round; stroke-linejoin:round; stroke-width:2; stroke-opacity:0.1; fill:none" points="243.14,1665.38 2352.76,1665.38 "/>
<polyline clip-path="url(#clip882)" style="stroke:#000000; stroke-linecap:round; stroke-linejoin:round; stroke-width:2; stroke-opacity:0.1; fill:none" points="243.14,1185.66 2352.76,1185.66 "/>
<polyline clip-path="url(#clip882)" style="stroke:#000000; stroke-linecap:round; stroke-linejoin:round; stroke-width:2; stroke-opacity:0.1; fill:none" points="243.14,705.95 2352.76,705.95 "/>
<polyline clip-path="url(#clip882)" style="stroke:#000000; stroke-linecap:round; stroke-linejoin:round; stroke-width:2; stroke-opacity:0.1; fill:none" points="243.14,226.236 2352.76,226.236 "/>
<polyline clip-path="url(#clip880)" style="stroke:#000000; stroke-linecap:round; stroke-linejoin:round; stroke-width:4; stroke-opacity:1; fill:none" points="243.14,2174.14 243.14,153.712 "/>
<polyline clip-path="url(#clip880)" style="stroke:#000000; stroke-linecap:round; stroke-linejoin:round; stroke-width:4; stroke-opacity:1; fill:none" points="243.14,2145.09 262.038,2145.09 "/>
<polyline clip-path="url(#clip880)" style="stroke:#000000; stroke-linecap:round; stroke-linejoin:round; stroke-width:4; stroke-opacity:1; fill:none" points="243.14,1665.38 262.038,1665.38 "/>
<polyline clip-path="url(#clip880)" style="stroke:#000000; stroke-linecap:round; stroke-linejoin:round; stroke-width:4; stroke-opacity:1; fill:none" points="243.14,1185.66 262.038,1185.66 "/>
<polyline clip-path="url(#clip880)" style="stroke:#000000; stroke-linecap:round; stroke-linejoin:round; stroke-width:4; stroke-opacity:1; fill:none" points="243.14,705.95 262.038,705.95 "/>
<polyline clip-path="url(#clip880)" style="stroke:#000000; stroke-linecap:round; stroke-linejoin:round; stroke-width:4; stroke-opacity:1; fill:none" points="243.14,226.236 262.038,226.236 "/>
<path clip-path="url(#clip880)" d="M149.965 2130.89 Q146.353 2130.89 144.525 2134.46 Q142.719 2138 142.719 2145.13 Q142.719 2152.24 144.525 2155.8 Q146.353 2159.34 149.965 2159.34 Q153.599 2159.34 155.404 2155.8 Q157.233 2152.24 157.233 2145.13 Q157.233 2138 155.404 2134.46 Q153.599 2130.89 149.965 2130.89 M149.965 2127.19 Q155.775 2127.19 158.83 2131.8 Q161.909 2136.38 161.909 2145.13 Q161.909 2153.86 158.83 2158.46 Q155.775 2163.05 149.965 2163.05 Q144.154 2163.05 141.076 2158.46 Q138.02 2153.86 138.02 2145.13 Q138.02 2136.38 141.076 2131.8 Q144.154 2127.19 149.965 2127.19 Z" fill="#000000" fill-rule="nonzero" fill-opacity="1" /><path clip-path="url(#clip880)" d="M170.126 2156.49 L175.011 2156.49 L175.011 2162.37 L170.126 2162.37 L170.126 2156.49 Z" fill="#000000" fill-rule="nonzero" fill-opacity="1" /><path clip-path="url(#clip880)" d="M195.196 2130.89 Q191.585 2130.89 189.756 2134.46 Q187.95 2138 187.95 2145.13 Q187.95 2152.24 189.756 2155.8 Q191.585 2159.34 195.196 2159.34 Q198.83 2159.34 200.636 2155.8 Q202.464 2152.24 202.464 2145.13 Q202.464 2138 200.636 2134.46 Q198.83 2130.89 195.196 2130.89 M195.196 2127.19 Q201.006 2127.19 204.061 2131.8 Q207.14 2136.38 207.14 2145.13 Q207.14 2153.86 204.061 2158.46 Q201.006 2163.05 195.196 2163.05 Q189.386 2163.05 186.307 2158.46 Q183.251 2153.86 183.251 2145.13 Q183.251 2136.38 186.307 2131.8 Q189.386 2127.19 195.196 2127.19 Z" fill="#000000" fill-rule="nonzero" fill-opacity="1" /><path clip-path="url(#clip880)" d="M150.96 1651.18 Q147.349 1651.18 145.52 1654.74 Q143.715 1658.28 143.715 1665.41 Q143.715 1672.52 145.52 1676.09 Q147.349 1679.63 150.96 1679.63 Q154.594 1679.63 156.4 1676.09 Q158.228 1672.52 158.228 1665.41 Q158.228 1658.28 156.4 1654.74 Q154.594 1651.18 150.96 1651.18 M150.96 1647.47 Q156.77 1647.47 159.826 1652.08 Q162.904 1656.66 162.904 1665.41 Q162.904 1674.14 159.826 1678.75 Q156.77 1683.33 150.96 1683.33 Q145.15 1683.33 142.071 1678.75 Q139.016 1674.14 139.016 1665.41 Q139.016 1656.66 142.071 1652.08 Q145.15 1647.47 150.96 1647.47 Z" fill="#000000" fill-rule="nonzero" fill-opacity="1" /><path clip-path="url(#clip880)" d="M171.122 1676.78 L176.006 1676.78 L176.006 1682.66 L171.122 1682.66 L171.122 1676.78 Z" fill="#000000" fill-rule="nonzero" fill-opacity="1" /><path clip-path="url(#clip880)" d="M186.237 1648.1 L204.594 1648.1 L204.594 1652.03 L190.52 1652.03 L190.52 1660.51 Q191.538 1660.16 192.557 1660 Q193.575 1659.81 194.594 1659.81 Q200.381 1659.81 203.761 1662.98 Q207.14 1666.15 207.14 1671.57 Q207.14 1677.15 203.668 1680.25 Q200.196 1683.33 193.876 1683.33 Q191.7 1683.33 189.432 1682.96 Q187.187 1682.59 184.779 1681.85 L184.779 1677.15 Q186.862 1678.28 189.085 1678.84 Q191.307 1679.4 193.784 1679.4 Q197.788 1679.4 200.126 1677.29 Q202.464 1675.18 202.464 1671.57 Q202.464 1667.96 200.126 1665.85 Q197.788 1663.75 193.784 1663.75 Q191.909 1663.75 190.034 1664.16 Q188.182 1664.58 186.237 1665.46 L186.237 1648.1 Z" fill="#000000" fill-rule="nonzero" fill-opacity="1" /><path clip-path="url(#clip880)" d="M140.775 1199.01 L148.414 1199.01 L148.414 1172.64 L140.103 1174.31 L140.103 1170.05 L148.367 1168.38 L153.043 1168.38 L153.043 1199.01 L160.682 1199.01 L160.682 1202.94 L140.775 1202.94 L140.775 1199.01 Z" fill="#000000" fill-rule="nonzero" fill-opacity="1" /><path clip-path="url(#clip880)" d="M170.126 1197.07 L175.011 1197.07 L175.011 1202.94 L170.126 1202.94 L170.126 1197.07 Z" fill="#000000" fill-rule="nonzero" fill-opacity="1" /><path clip-path="url(#clip880)" d="M195.196 1171.46 Q191.585 1171.46 189.756 1175.03 Q187.95 1178.57 187.95 1185.7 Q187.95 1192.81 189.756 1196.37 Q191.585 1199.91 195.196 1199.91 Q198.83 1199.91 200.636 1196.37 Q202.464 1192.81 202.464 1185.7 Q202.464 1178.57 200.636 1175.03 Q198.83 1171.46 195.196 1171.46 M195.196 1167.76 Q201.006 1167.76 204.061 1172.37 Q207.14 1176.95 207.14 1185.7 Q207.14 1194.43 204.061 1199.03 Q201.006 1203.62 195.196 1203.62 Q189.386 1203.62 186.307 1199.03 Q183.251 1194.43 183.251 1185.7 Q183.251 1176.95 186.307 1172.37 Q189.386 1167.76 195.196 1167.76 Z" fill="#000000" fill-rule="nonzero" fill-opacity="1" /><path clip-path="url(#clip880)" d="M141.77 719.295 L149.409 719.295 L149.409 692.929 L141.099 694.596 L141.099 690.337 L149.363 688.67 L154.039 688.67 L154.039 719.295 L161.677 719.295 L161.677 723.23 L141.77 723.23 L141.77 719.295 Z" fill="#000000" fill-rule="nonzero" fill-opacity="1" /><path clip-path="url(#clip880)" d="M171.122 717.351 L176.006 717.351 L176.006 723.23 L171.122 723.23 L171.122 717.351 Z" fill="#000000" fill-rule="nonzero" fill-opacity="1" /><path clip-path="url(#clip880)" d="M186.237 688.67 L204.594 688.67 L204.594 692.605 L190.52 692.605 L190.52 701.078 Q191.538 700.73 192.557 700.568 Q193.575 700.383 194.594 700.383 Q200.381 700.383 203.761 703.554 Q207.14 706.726 207.14 712.142 Q207.14 717.721 203.668 720.823 Q200.196 723.901 193.876 723.901 Q191.7 723.901 189.432 723.531 Q187.187 723.161 184.779 722.42 L184.779 717.721 Q186.862 718.855 189.085 719.411 Q191.307 719.966 193.784 719.966 Q197.788 719.966 200.126 717.86 Q202.464 715.753 202.464 712.142 Q202.464 708.531 200.126 706.425 Q197.788 704.318 193.784 704.318 Q191.909 704.318 190.034 704.735 Q188.182 705.152 186.237 706.031 L186.237 688.67 Z" fill="#000000" fill-rule="nonzero" fill-opacity="1" /><path clip-path="url(#clip880)" d="M143.992 239.58 L160.312 239.58 L160.312 243.516 L138.367 243.516 L138.367 239.58 Q141.029 236.826 145.613 232.196 Q150.219 227.543 151.4 226.201 Q153.645 223.678 154.525 221.942 Q155.427 220.182 155.427 218.493 Q155.427 215.738 153.483 214.002 Q151.562 212.266 148.46 212.266 Q146.261 212.266 143.807 213.03 Q141.377 213.793 138.599 215.344 L138.599 210.622 Q141.423 209.488 143.877 208.909 Q146.33 208.331 148.367 208.331 Q153.738 208.331 156.932 211.016 Q160.127 213.701 160.127 218.192 Q160.127 220.321 159.316 222.243 Q158.529 224.141 156.423 226.733 Q155.844 227.405 152.742 230.622 Q149.64 233.817 143.992 239.58 Z" fill="#000000" fill-rule="nonzero" fill-opacity="1" /><path clip-path="url(#clip880)" d="M170.126 237.636 L175.011 237.636 L175.011 243.516 L170.126 243.516 L170.126 237.636 Z" fill="#000000" fill-rule="nonzero" fill-opacity="1" /><path clip-path="url(#clip880)" d="M195.196 212.034 Q191.585 212.034 189.756 215.599 Q187.95 219.141 187.95 226.27 Q187.95 233.377 189.756 236.942 Q191.585 240.483 195.196 240.483 Q198.83 240.483 200.636 236.942 Q202.464 233.377 202.464 226.27 Q202.464 219.141 200.636 215.599 Q198.83 212.034 195.196 212.034 M195.196 208.331 Q201.006 208.331 204.061 212.937 Q207.14 217.52 207.14 226.27 Q207.14 234.997 204.061 239.604 Q201.006 244.187 195.196 244.187 Q189.386 244.187 186.307 239.604 Q183.251 234.997 183.251 226.27 Q183.251 217.52 186.307 212.937 Q189.386 208.331 195.196 208.331 Z" fill="#000000" fill-rule="nonzero" fill-opacity="1" /><path clip-path="url(#clip880)" d="M40.2442 1230.62 L40.2442 1224.19 L82.3533 1224.19 L82.3533 1201.05 L87.7642 1201.05 L87.7642 1230.62 L40.2442 1230.62 Z" fill="#000000" fill-rule="nonzero" fill-opacity="1" /><path clip-path="url(#clip880)" d="M56.2221 1181.89 Q56.2221 1186.6 59.9142 1189.34 Q63.5745 1192.08 69.972 1192.08 Q76.3695 1192.08 80.0617 1189.37 Q83.7219 1186.64 83.7219 1181.89 Q83.7219 1177.21 80.0298 1174.48 Q76.3377 1171.74 69.972 1171.74 Q63.6381 1171.74 59.946 1174.48 Q56.2221 1177.21 56.2221 1181.89 M51.2568 1181.89 Q51.2568 1174.25 56.2221 1169.89 Q61.1873 1165.53 69.972 1165.53 Q78.7249 1165.53 83.7219 1169.89 Q88.6872 1174.25 88.6872 1181.89 Q88.6872 1189.56 83.7219 1193.92 Q78.7249 1198.25 69.972 1198.25 Q61.1873 1198.25 56.2221 1193.92 Q51.2568 1189.56 51.2568 1181.89 Z" fill="#000000" fill-rule="nonzero" fill-opacity="1" /><path clip-path="url(#clip880)" d="M53.1665 1133.1 L58.7047 1133.1 Q57.4316 1135.58 56.795 1138.26 Q56.1584 1140.93 56.1584 1143.79 Q56.1584 1148.15 57.4952 1150.35 Q58.832 1152.52 61.5056 1152.52 Q63.5426 1152.52 64.7203 1150.96 Q65.8661 1149.4 66.9165 1144.69 L67.3621 1142.68 Q68.6989 1136.44 71.1497 1133.83 Q73.5686 1131.19 77.9291 1131.19 Q82.8944 1131.19 85.7908 1135.14 Q88.6872 1139.05 88.6872 1145.93 Q88.6872 1148.79 88.1143 1151.91 Q87.5732 1155 86.4592 1158.44 L80.4118 1158.44 Q82.0987 1155.19 82.958 1152.04 Q83.7856 1148.89 83.7856 1145.8 Q83.7856 1141.66 82.3851 1139.43 Q80.9529 1137.21 78.3747 1137.21 Q75.9876 1137.21 74.7145 1138.83 Q73.4413 1140.42 72.2637 1145.86 L71.7862 1147.9 Q70.6404 1153.34 68.2851 1155.76 Q65.898 1158.18 61.7602 1158.18 Q56.7313 1158.18 53.9941 1154.62 Q51.2568 1151.05 51.2568 1144.49 Q51.2568 1141.25 51.7343 1138.38 Q52.2117 1135.52 53.1665 1133.1 Z" fill="#000000" fill-rule="nonzero" fill-opacity="1" /><path clip-path="url(#clip880)" d="M53.1665 1099.14 L58.7047 1099.14 Q57.4316 1101.62 56.795 1104.3 Q56.1584 1106.97 56.1584 1109.83 Q56.1584 1114.19 57.4952 1116.39 Q58.832 1118.55 61.5056 1118.55 Q63.5426 1118.55 64.7203 1116.99 Q65.8661 1115.44 66.9165 1110.72 L67.3621 1108.72 Q68.6989 1102.48 71.1497 1099.87 Q73.5686 1097.23 77.9291 1097.23 Q82.8944 1097.23 85.7908 1101.18 Q88.6872 1105.09 88.6872 1111.97 Q88.6872 1114.83 88.1143 1117.95 Q87.5732 1121.04 86.4592 1124.47 L80.4118 1124.47 Q82.0987 1121.23 82.958 1118.08 Q83.7856 1114.93 83.7856 1111.84 Q83.7856 1107.7 82.3851 1105.47 Q80.9529 1103.24 78.3747 1103.24 Q75.9876 1103.24 74.7145 1104.87 Q73.4413 1106.46 72.2637 1111.9 L71.7862 1113.94 Q70.6404 1119.38 68.2851 1121.8 Q65.898 1124.22 61.7602 1124.22 Q56.7313 1124.22 53.9941 1120.66 Q51.2568 1117.09 51.2568 1110.53 Q51.2568 1107.29 51.7343 1104.42 Q52.2117 1101.56 53.1665 1099.14 Z" fill="#000000" fill-rule="nonzero" fill-opacity="1" /><path clip-path="url(#clip880)" d="M988.58 12.096 L996.763 12.096 L996.763 65.6895 L1026.21 65.6895 L1026.21 72.576 L988.58 72.576 L988.58 12.096 Z" fill="#000000" fill-rule="nonzero" fill-opacity="1" /><path clip-path="url(#clip880)" d="M1071.83 48.0275 L1071.83 51.6733 L1037.56 51.6733 Q1038.04 59.3701 1042.17 63.421 Q1046.35 67.4314 1053.76 67.4314 Q1058.05 67.4314 1062.06 66.3781 Q1066.11 65.3249 1070.08 63.2184 L1070.08 70.267 Q1066.07 71.9684 1061.86 72.8596 Q1057.65 73.7508 1053.31 73.7508 Q1042.46 73.7508 1036.1 67.4314 Q1029.78 61.1119 1029.78 50.3365 Q1029.78 39.1965 1035.77 32.6746 Q1041.81 26.1121 1052.02 26.1121 Q1061.17 26.1121 1066.48 32.0264 Q1071.83 37.9003 1071.83 48.0275 M1064.37 45.84 Q1064.29 39.7232 1060.93 36.0774 Q1057.61 32.4315 1052.1 32.4315 Q1045.86 32.4315 1042.09 35.9558 Q1038.37 39.4801 1037.8 45.8805 L1064.37 45.84 Z" fill="#000000" fill-rule="nonzero" fill-opacity="1" /><path clip-path="url(#clip880)" d="M1104.68 49.7694 Q1095.65 49.7694 1092.16 51.8354 Q1088.68 53.9013 1088.68 58.8839 Q1088.68 62.8538 1091.27 65.2034 Q1093.9 67.5124 1098.4 67.5124 Q1104.6 67.5124 1108.33 63.1374 Q1112.09 58.7219 1112.09 51.4303 L1112.09 49.7694 L1104.68 49.7694 M1119.55 46.6907 L1119.55 72.576 L1112.09 72.576 L1112.09 65.6895 Q1109.54 69.8214 1105.73 71.8063 Q1101.92 73.7508 1096.42 73.7508 Q1089.45 73.7508 1085.32 69.8619 Q1081.22 65.9325 1081.22 59.3701 Q1081.22 51.7138 1086.33 47.825 Q1091.47 43.9361 1101.64 43.9361 L1112.09 43.9361 L1112.09 43.2069 Q1112.09 38.0623 1108.69 35.2672 Q1105.33 32.4315 1099.21 32.4315 Q1095.32 32.4315 1091.64 33.3632 Q1087.95 34.295 1084.55 36.1584 L1084.55 29.2718 Q1088.64 27.692 1092.49 26.9223 Q1096.33 26.1121 1099.98 26.1121 Q1109.82 26.1121 1114.69 31.2163 Q1119.55 36.3204 1119.55 46.6907 Z" fill="#000000" fill-rule="nonzero" fill-opacity="1" /><path clip-path="url(#clip880)" d="M1161.19 34.1734 Q1159.93 33.4443 1158.43 33.1202 Q1156.98 32.7556 1155.19 32.7556 Q1148.87 32.7556 1145.47 36.8875 Q1142.11 40.9789 1142.11 48.6757 L1142.11 72.576 L1134.62 72.576 L1134.62 27.2059 L1142.11 27.2059 L1142.11 34.2544 Q1144.46 30.1225 1148.23 28.1376 Q1151.99 26.1121 1157.38 26.1121 Q1158.15 26.1121 1159.08 26.2337 Q1160.01 26.3147 1161.15 26.5172 L1161.19 34.1734 Z" fill="#000000" fill-rule="nonzero" fill-opacity="1" /><path clip-path="url(#clip880)" d="M1205.26 45.1919 L1205.26 72.576 L1197.81 72.576 L1197.81 45.4349 Q1197.81 38.994 1195.3 35.7938 Q1192.79 32.5936 1187.76 32.5936 Q1181.73 32.5936 1178.24 36.4419 Q1174.76 40.2903 1174.76 46.9338 L1174.76 72.576 L1167.27 72.576 L1167.27 27.2059 L1174.76 27.2059 L1174.76 34.2544 Q1177.43 30.163 1181.04 28.1376 Q1184.68 26.1121 1189.42 26.1121 Q1197.24 26.1121 1201.25 30.9732 Q1205.26 35.7938 1205.26 45.1919 Z" fill="#000000" fill-rule="nonzero" fill-opacity="1" /><path clip-path="url(#clip880)" d="M1220.13 27.2059 L1227.58 27.2059 L1227.58 72.576 L1220.13 72.576 L1220.13 27.2059 M1220.13 9.54393 L1227.58 9.54393 L1227.58 18.9825 L1220.13 18.9825 L1220.13 9.54393 Z" fill="#000000" fill-rule="nonzero" fill-opacity="1" /><path clip-path="url(#clip880)" d="M1280.89 45.1919 L1280.89 72.576 L1273.44 72.576 L1273.44 45.4349 Q1273.44 38.994 1270.93 35.7938 Q1268.42 32.5936 1263.39 32.5936 Q1257.36 32.5936 1253.87 36.4419 Q1250.39 40.2903 1250.39 46.9338 L1250.39 72.576 L1242.9 72.576 L1242.9 27.2059 L1250.39 27.2059 L1250.39 34.2544 Q1253.06 30.163 1256.67 28.1376 Q1260.32 26.1121 1265.05 26.1121 Q1272.87 26.1121 1276.88 30.9732 Q1280.89 35.7938 1280.89 45.1919 Z" fill="#000000" fill-rule="nonzero" fill-opacity="1" /><path clip-path="url(#clip880)" d="M1325.62 49.3643 Q1325.62 41.2625 1322.25 36.8065 Q1318.93 32.3505 1312.9 32.3505 Q1306.9 32.3505 1303.54 36.8065 Q1300.22 41.2625 1300.22 49.3643 Q1300.22 57.4256 1303.54 61.8816 Q1306.9 66.3376 1312.9 66.3376 Q1318.93 66.3376 1322.25 61.8816 Q1325.62 57.4256 1325.62 49.3643 M1333.07 66.9452 Q1333.07 78.5308 1327.92 84.1616 Q1322.78 89.8329 1312.17 89.8329 Q1308.24 89.8329 1304.75 89.2252 Q1301.27 88.6581 1297.99 87.4428 L1297.99 80.1917 Q1301.27 81.9741 1304.47 82.8248 Q1307.67 83.6755 1310.99 83.6755 Q1318.32 83.6755 1321.97 79.8271 Q1325.62 76.0193 1325.62 68.282 L1325.62 64.5957 Q1323.31 68.6061 1319.7 70.5911 Q1316.1 72.576 1311.07 72.576 Q1302.73 72.576 1297.62 66.2161 Q1292.52 59.8562 1292.52 49.3643 Q1292.52 38.832 1297.62 32.472 Q1302.73 26.1121 1311.07 26.1121 Q1316.1 26.1121 1319.7 28.0971 Q1323.31 30.082 1325.62 34.0924 L1325.62 27.2059 L1333.07 27.2059 L1333.07 66.9452 Z" fill="#000000" fill-rule="nonzero" fill-opacity="1" /><path clip-path="url(#clip880)" d="M1420.41 16.7545 L1420.41 25.383 Q1416.27 21.5346 1411.58 19.6307 Q1406.92 17.7268 1401.65 17.7268 Q1391.28 17.7268 1385.77 24.0867 Q1380.26 30.4061 1380.26 42.3968 Q1380.26 54.3469 1385.77 60.7069 Q1391.28 67.0263 1401.65 67.0263 Q1406.92 67.0263 1411.58 65.1223 Q1416.27 63.2184 1420.41 59.3701 L1420.41 67.9175 Q1416.11 70.8341 1411.29 72.2924 Q1406.51 73.7508 1401.17 73.7508 Q1387.43 73.7508 1379.53 65.3654 Q1371.63 56.9395 1371.63 42.3968 Q1371.63 27.8135 1379.53 19.4281 Q1387.43 11.0023 1401.17 11.0023 Q1406.59 11.0023 1411.37 12.4606 Q1416.19 13.8784 1420.41 16.7545 Z" fill="#000000" fill-rule="nonzero" fill-opacity="1" /><path clip-path="url(#clip880)" d="M1431.95 54.671 L1431.95 27.2059 L1439.41 27.2059 L1439.41 54.3874 Q1439.41 60.8284 1441.92 64.0691 Q1444.43 67.2693 1449.45 67.2693 Q1455.49 67.2693 1458.97 63.421 Q1462.5 59.5726 1462.5 52.9291 L1462.5 27.2059 L1469.95 27.2059 L1469.95 72.576 L1462.5 72.576 L1462.5 65.6084 Q1459.78 69.7404 1456.18 71.7658 Q1452.61 73.7508 1447.87 73.7508 Q1440.05 73.7508 1436 68.8897 Q1431.95 64.0286 1431.95 54.671 M1450.71 26.1121 L1450.71 26.1121 Z" fill="#000000" fill-rule="nonzero" fill-opacity="1" /><path clip-path="url(#clip880)" d="M1511.59 34.1734 Q1510.34 33.4443 1508.84 33.1202 Q1507.38 32.7556 1505.6 32.7556 Q1499.28 32.7556 1495.88 36.8875 Q1492.51 40.9789 1492.51 48.6757 L1492.51 72.576 L1485.02 72.576 L1485.02 27.2059 L1492.51 27.2059 L1492.51 34.2544 Q1494.86 30.1225 1498.63 28.1376 Q1502.4 26.1121 1507.78 26.1121 Q1508.55 26.1121 1509.49 26.2337 Q1510.42 26.3147 1511.55 26.5172 L1511.59 34.1734 Z" fill="#000000" fill-rule="nonzero" fill-opacity="1" /><path clip-path="url(#clip880)" d="M1514.06 27.2059 L1521.96 27.2059 L1536.14 65.2844 L1550.32 27.2059 L1558.22 27.2059 L1541.2 72.576 L1531.08 72.576 L1514.06 27.2059 Z" fill="#000000" fill-rule="nonzero" fill-opacity="1" /><path clip-path="url(#clip880)" d="M1607.32 48.0275 L1607.32 51.6733 L1573.04 51.6733 Q1573.53 59.3701 1577.66 63.421 Q1581.84 67.4314 1589.25 67.4314 Q1593.54 67.4314 1597.55 66.3781 Q1601.6 65.3249 1605.57 63.2184 L1605.57 70.267 Q1601.56 71.9684 1597.35 72.8596 Q1593.14 73.7508 1588.8 73.7508 Q1577.95 73.7508 1571.59 67.4314 Q1565.27 61.1119 1565.27 50.3365 Q1565.27 39.1965 1571.26 32.6746 Q1577.3 26.1121 1587.51 26.1121 Q1596.66 26.1121 1601.97 32.0264 Q1607.32 37.9003 1607.32 48.0275 M1599.86 45.84 Q1599.78 39.7232 1596.42 36.0774 Q1593.1 32.4315 1587.59 32.4315 Q1581.35 32.4315 1577.58 35.9558 Q1573.86 39.4801 1573.29 45.8805 L1599.86 45.84 Z" fill="#000000" fill-rule="nonzero" fill-opacity="1" /><polyline clip-path="url(#clip882)" style="stroke:#0000ff; stroke-linecap:round; stroke-linejoin:round; stroke-width:8; stroke-opacity:1; fill:none" points="302.846,210.894 306.835,540.558 310.823,836.064 314.811,1062.77 318.8,1253.22 322.788,1395.6 326.777,1487.83 330.765,1541.09 334.753,1586.07 338.742,1627.03 342.73,1656.21 346.718,1673.22 350.707,1687.73 354.695,1706.19 358.684,1724.57 362.672,1738.1 366.66,1746.66 370.649,1756.36 374.637,1769.12 378.626,1780.73 382.614,1790.56 386.602,1799.75 390.591,1807.86 394.579,1815.83 398.567,1824.37 402.556,1832.06 406.544,1838.61 410.533,1844.9 414.521,1850.77 418.509,1856.13 422.498,1861.47 426.486,1866.68 430.475,1871.37 434.463,1875.91 438.451,1880.34 442.44,1884.38 446.428,1888.34 450.416,1892.48 454.405,1896.37 458.393,1899.75 462.382,1902.93 466.37,1906.12 470.358,1909.34 474.347,1912.46 478.335,1915.21 482.324,1917.77 486.312,1920.5 490.3,1923.26 494.289,1925.77 498.277,1928.14 502.265,1930.47 506.254,1932.77 510.242,1935.04 514.231,1937.21 518.219,1939.27 522.207,1941.32 526.196,1943.35 530.184,1945.35 534.173,1947.33 538.161,1949.23 542.149,1951.08 546.138,1952.92 550.126,1954.72 554.114,1956.46 558.103,1958.16 562.091,1959.83 566.08,1961.47 570.068,1963.09 574.056,1964.67 578.045,1966.23 582.033,1967.76 586.022,1969.25 590.01,1970.72 593.998,1972.16 597.987,1973.57 601.975,1974.95 605.963,1976.3 609.952,1977.63 613.94,1978.93 617.929,1980.2 621.917,1981.44 625.905,1982.67 629.894,1983.88 633.882,1985.06 637.871,1986.22 641.859,1987.36 645.847,1988.47 649.836,1989.57 653.824,1990.66 657.812,1991.72 661.801,1992.78 665.789,1993.82 669.778,1994.84 673.766,1995.85 677.754,1996.84 681.743,1997.81 685.731,1998.77 689.719,1999.71 693.708,2000.64 697.696,2001.56 701.685,2002.46 705.673,2003.35 709.661,2004.23 713.65,2005.1 717.638,2005.96 721.627,2006.8 725.615,2007.64 729.603,2008.46 733.592,2009.27 737.58,2010.07 741.568,2010.86 745.557,2011.64 749.545,2012.41 753.534,2013.17 757.522,2013.92 761.51,2014.66 765.499,2015.4 769.487,2016.12 773.476,2016.83 777.464,2017.53 781.452,2018.23 785.441,2018.92 789.429,2019.6 793.417,2020.27 797.406,2020.94 801.394,2021.6 805.383,2022.25 809.371,2022.9 813.359,2023.54 817.348,2024.17 821.336,2024.8 825.325,2025.42 829.313,2026.03 833.301,2026.64 837.29,2027.24 841.278,2027.83 845.266,2028.41 849.255,2028.99 853.243,2029.57 857.232,2030.13 861.22,2030.7 865.208,2031.25 869.197,2031.81 873.185,2032.36 877.174,2032.9 881.162,2033.44 885.15,2033.97 889.139,2034.5 893.127,2035.03 897.115,2035.54 901.104,2036.06 905.092,2036.57 909.081,2037.08 913.069,2037.59 917.057,2038.09 921.046,2038.58 925.034,2039.07 929.023,2039.55 933.011,2040.04 936.999,2040.52 940.988,2041 944.976,2041.47 948.964,2041.94 952.953,2042.4 956.941,2042.86 960.93,2043.32 964.918,2043.77 968.906,2044.21 972.895,2044.65 976.883,2045.1 980.872,2045.56 984.86,2046 988.848,2046.42 992.837,2046.84 996.825,2047.29 1000.81,2047.73 1004.8,2048.14 1008.79,2048.56 1012.78,2048.98 1016.77,2049.41 1020.76,2049.83 1024.74,2050.23 1028.73,2050.63 1032.72,2051.03 1036.71,2051.45 1040.7,2051.86 1044.69,2052.26 1048.67,2052.65 1052.66,2053.04 1056.65,2053.43 1060.64,2053.81 1064.63,2054.18 1068.62,2054.55 1072.6,2054.93 1076.59,2055.34 1080.58,2055.72 1084.57,2056.07 1088.56,2056.42 1092.55,2056.8 1096.53,2057.2 1100.52,2057.56 1104.51,2057.89 1108.5,2058.27 1112.49,2058.65 1116.48,2059 1120.46,2059.35 1124.45,2059.7 1128.44,2060.06 1132.43,2060.41 1136.42,2060.75 1140.41,2061.1 1144.4,2061.45 1148.38,2061.79 1152.37,2062.13 1156.36,2062.47 1160.35,2062.8 1164.34,2063.13 1168.33,2063.46 1172.31,2063.81 1176.3,2064.14 1180.29,2064.46 1184.28,2064.78 1188.27,2065.11 1192.26,2065.43 1196.24,2065.75 1200.23,2066.07 1204.22,2066.39 1208.21,2066.7 1212.2,2067 1216.19,2067.31 1220.17,2067.62 1224.16,2067.93 1228.15,2068.25 1232.14,2068.55 1236.13,2068.85 1240.12,2069.14 1244.1,2069.43 1248.09,2069.73 1252.08,2070.04 1256.07,2070.34 1260.06,2070.63 1264.05,2070.91 1268.04,2071.19 1272.02,2071.48 1276.01,2071.78 1280,2072.07 1283.99,2072.35 1287.98,2072.62 1291.97,2072.89 1295.95,2073.16 1299.94,2073.45 1303.93,2073.74 1307.92,2074.02 1311.91,2074.29 1315.9,2074.55 1319.88,2074.82 1323.87,2075.1 1327.86,2075.37 1331.85,2075.65 1335.84,2075.92 1339.83,2076.18 1343.81,2076.44 1347.8,2076.69 1351.79,2076.96 1355.78,2077.22 1359.77,2077.48 1363.76,2077.75 1367.74,2078.01 1371.73,2078.26 1375.72,2078.52 1379.71,2078.76 1383.7,2079 1387.69,2079.25 1391.68,2079.5 1395.66,2079.75 1399.65,2080.01 1403.64,2080.27 1407.63,2080.51 1411.62,2080.75 1415.61,2081 1419.59,2081.24 1423.58,2081.48 1427.57,2081.72 1431.56,2081.95 1435.55,2082.17 1439.54,2082.41 1443.52,2082.66 1447.51,2082.92 1451.5,2083.15 1455.49,2083.37 1459.48,2083.61 1463.47,2083.85 1467.45,2084.1 1471.44,2084.32 1475.43,2084.53 1479.42,2084.75 1483.41,2084.98 1487.4,2085.22 1491.38,2085.46 1495.37,2085.69 1499.36,2085.91 1503.35,2086.12 1507.34,2086.33 1511.33,2086.56 1515.31,2086.8 1519.3,2087.03 1523.29,2087.25 1527.28,2087.46 1531.27,2087.68 1535.26,2087.89 1539.25,2088.11 1543.23,2088.34 1547.22,2088.57 1551.21,2088.79 1555.2,2089 1559.19,2089.21 1563.18,2089.42 1567.16,2089.63 1571.15,2089.83 1575.14,2090.05 1579.13,2090.27 1583.12,2090.48 1587.11,2090.7 1591.09,2090.92 1595.08,2091.12 1599.07,2091.31 1603.06,2091.53 1607.05,2091.74 1611.04,2091.94 1615.02,2092.15 1619.01,2092.35 1623,2092.54 1626.99,2092.73 1630.98,2092.92 1634.97,2093.11 1638.95,2093.31 1642.94,2093.53 1646.93,2093.74 1650.92,2093.94 1654.91,2094.13 1658.9,2094.32 1662.89,2094.51 1666.87,2094.7 1670.86,2094.89 1674.85,2095.07 1678.84,2095.25 1682.83,2095.43 1686.82,2095.63 1690.8,2095.83 1694.79,2096.02 1698.78,2096.2 1702.77,2096.37 1706.76,2096.52 1710.75,2096.7 1714.73,2096.91 1718.72,2097.11 1722.71,2097.29 1726.7,2097.47 1730.69,2097.63 1734.68,2097.79 1738.66,2097.98 1742.65,2098.17 1746.64,2098.36 1750.63,2098.53 1754.62,2098.69 1758.61,2098.84 1762.59,2099 1766.58,2099.19 1770.57,2099.38 1774.56,2099.56 1778.55,2099.72 1782.54,2099.87 1786.53,2100.03 1790.51,2100.2 1794.5,2100.39 1798.49,2100.56 1802.48,2100.73 1806.47,2100.89 1810.46,2101.03 1814.44,2101.2 1818.43,2101.38 1822.42,2101.55 1826.41,2101.72 1830.4,2101.88 1834.39,2102.03 1838.37,2102.18 1842.36,2102.35 1846.35,2102.51 1850.34,2102.68 1854.33,2102.84 1858.32,2103 1862.3,2103.14 1866.29,2103.27 1870.28,2103.43 1874.27,2103.6 1878.26,2103.78 1882.25,2103.93 1886.23,2104.08 1890.22,2104.22 1894.21,2104.36 1898.2,2104.53 1902.19,2104.69 1906.18,2104.85 1910.16,2104.99 1914.15,2105.13 1918.14,2105.28 1922.13,2105.42 1926.12,2105.59 1930.11,2105.74 1934.1,2105.88 1938.08,2106.02 1942.07,2106.17 1946.06,2106.32 1950.05,2106.45 1954.04,2106.59 1958.03,2106.71 1962.01,2106.87 1966,2107.03 1969.99,2107.17 1973.98,2107.29 1977.97,2107.38 1981.96,2107.54 1985.94,2107.72 1989.93,2107.87 1993.92,2107.98 1997.91,2108.07 2001.9,2108.24 2005.89,2108.42 2009.87,2108.55 2013.86,2108.66 2017.85,2108.77 2021.84,2108.95 2025.83,2109.11 2029.82,2109.21 2033.8,2109.34 2037.79,2109.47 2041.78,2109.63 2045.77,2109.77 2049.76,2109.88 2053.75,2110 2057.74,2110.12 2061.72,2110.27 2065.71,2110.43 2069.7,2110.54 2073.69,2110.67 2077.68,2110.78 2081.67,2110.9 2085.65,2111.06 2089.64,2111.17 2093.63,2111.28 2097.62,2111.39 2101.61,2111.53 2105.6,2111.68 2109.58,2111.77 2113.57,2111.88 2117.56,2112.02 2121.55,2112.16 2125.54,2112.3 2129.53,2112.38 2133.51,2112.49 2137.5,2112.62 2141.49,2112.76 2145.48,2112.89 2149.47,2112.98 2153.46,2113.11 2157.44,2113.23 2161.43,2113.35 2165.42,2113.46 2169.41,2113.54 2173.4,2113.66 2177.39,2113.81 2181.38,2113.94 2185.36,2114.06 2189.35,2114.15 2193.34,2114.24 2197.33,2114.35 2201.32,2114.47 2205.31,2114.61 2209.29,2114.72 2213.28,2114.82 2217.27,2114.91 2221.26,2115.01 2225.25,2115.16 2229.24,2115.27 2233.22,2115.37 2237.21,2115.45 2241.2,2115.51 2245.19,2115.66 2249.18,2115.79 2253.17,2115.91 2257.15,2115.99 2261.14,2116.06 2265.13,2116.2 2269.12,2116.33 2273.11,2116.44 2277.1,2116.53 2281.08,2116.59 2285.07,2116.72 2289.06,2116.84 2293.05,2116.96 "/>
</svg>
